# xmcd
#
# Track frame offsets:
#	150
#	14926
#	29674
#	43244
#	60597
#	74733
#	91166
#	106043
#	120777
#	135460
#	150156
#	166350
#	182520
#	197822
#	227311
#	246757
#	261518
#	276505
#	291774
#	305221
#	325864
#
# Disc length: 4544 seconds
#
# Revision: 0
# Processed by: cddbd v1.5.2PL0 Copyright (c) Steve Scherf et al.
# Submitted via: EasyCDDAExtractor 11.1.0.1
#
DISCID=2e11be15
DTITLE=Ricardo and Renatto - Pe de frango
DYEAR=2008
DGENRE=Country
TTITLE0=Pe de frango
TTITLE1=Seja so minha
TTITLE2=Pescaria
TTITLE3=Coracao de mulher
TTITLE4=Mulher e Cachaca
TTITLE5=Tempo de amar
TTITLE6=Pega ninguem
TTITLE7=Cerveja com beijo
TTITLE8=Vem pro meu fusca
TTITLE9=Telefona
TTITLE10=Esta tudo bem
TTITLE11=Sou assim sem voce
TTITLE12=Do outro lado da cidade
TTITLE13=Menina da aldeia
TTITLE14=Fala serio
TTITLE15=Bandida
TTITLE16=Lance da paixao
TTITLE17=Garcom
TTITLE18=Meu universo e voce
TTITLE19=Mensagem pra ela
TTITLE20=Depois do prazer
EXTD=
EXTT0=
EXTT1=
EXTT2=
EXTT3=
EXTT4=
EXTT5=
EXTT6=
EXTT7=
EXTT8=
EXTT9=
EXTT10=
EXTT11=
EXTT12=
EXTT13=
EXTT14=
EXTT15=
EXTT16=
EXTT17=
EXTT18=
EXTT19=
EXTT20=
PLAYORDER=
